<mxfile host="app.diagrams.net" modified="2024-06-17T09:44:52.809Z" agent="Mozilla/5.0 (Windows NT 10.0; Win64; x64) AppleWebKit/537.36 (KHTML, like Gecko) Chrome/126.0.0.0 Safari/537.36" etag="DOWVH5GX4rhTTPIDfpHF" version="24.5.4" type="device">
  <diagram name="Page-1" id="e7e014a7-5840-1c2e-5031-d8a46d1fe8dd">
    <mxGraphModel dx="2603" dy="746" grid="1" gridSize="10" guides="1" tooltips="1" connect="1" arrows="1" fold="1" page="1" pageScale="1" pageWidth="1169" pageHeight="826" background="none" math="0" shadow="0">
      <root>
        <mxCell id="0" />
        <mxCell id="1" parent="0" />
        <mxCell id="uuuTYb2pi5rG6Kl5FLdr-58" value="Friend Of Admin" style="shape=umlActor;verticalLabelPosition=bottom;verticalAlign=top;html=1;outlineConnect=0;" vertex="1" parent="1">
          <mxGeometry x="210" y="240" width="30" height="60" as="geometry" />
        </mxCell>
        <mxCell id="uuuTYb2pi5rG6Kl5FLdr-62" value="Calendar Admin" style="shape=umlActor;verticalLabelPosition=bottom;verticalAlign=top;html=1;outlineConnect=0;" vertex="1" parent="1">
          <mxGeometry x="220" y="520" width="30" height="60" as="geometry" />
        </mxCell>
        <mxCell id="uuuTYb2pi5rG6Kl5FLdr-68" value="calendar" style="ellipse;whiteSpace=wrap;html=1;" vertex="1" parent="1">
          <mxGeometry x="410" y="373" width="120" height="80" as="geometry" />
        </mxCell>
        <mxCell id="uuuTYb2pi5rG6Kl5FLdr-69" value="join" style="ellipse;whiteSpace=wrap;html=1;" vertex="1" parent="1">
          <mxGeometry x="290" y="220" width="120" height="80" as="geometry" />
        </mxCell>
        <mxCell id="uuuTYb2pi5rG6Kl5FLdr-70" value="create" style="ellipse;whiteSpace=wrap;html=1;" vertex="1" parent="1">
          <mxGeometry x="300" y="530" width="120" height="80" as="geometry" />
        </mxCell>
        <mxCell id="uuuTYb2pi5rG6Kl5FLdr-71" value="modify event" style="ellipse;whiteSpace=wrap;html=1;" vertex="1" parent="1">
          <mxGeometry x="650" y="180" width="120" height="80" as="geometry" />
        </mxCell>
        <mxCell id="uuuTYb2pi5rG6Kl5FLdr-72" value="create event" style="ellipse;whiteSpace=wrap;html=1;" vertex="1" parent="1">
          <mxGeometry x="540" y="140" width="120" height="80" as="geometry" />
        </mxCell>
        <mxCell id="uuuTYb2pi5rG6Kl5FLdr-73" value="delete event" style="ellipse;whiteSpace=wrap;html=1;" vertex="1" parent="1">
          <mxGeometry x="650" y="260" width="120" height="80" as="geometry" />
        </mxCell>
        <mxCell id="uuuTYb2pi5rG6Kl5FLdr-74" value="add comment" style="ellipse;whiteSpace=wrap;html=1;" vertex="1" parent="1">
          <mxGeometry x="676" y="493" width="120" height="80" as="geometry" />
        </mxCell>
        <mxCell id="uuuTYb2pi5rG6Kl5FLdr-75" value="delete comment" style="ellipse;whiteSpace=wrap;html=1;" vertex="1" parent="1">
          <mxGeometry x="576" y="563" width="120" height="80" as="geometry" />
        </mxCell>
        <mxCell id="uuuTYb2pi5rG6Kl5FLdr-76" value="join event" style="ellipse;whiteSpace=wrap;html=1;" vertex="1" parent="1">
          <mxGeometry x="420" y="140" width="120" height="80" as="geometry" />
        </mxCell>
        <mxCell id="uuuTYb2pi5rG6Kl5FLdr-78" value="" style="endArrow=classic;html=1;rounded=0;exitX=0.567;exitY=1;exitDx=0;exitDy=0;exitPerimeter=0;entryX=0.5;entryY=0;entryDx=0;entryDy=0;" edge="1" parent="1" source="uuuTYb2pi5rG6Kl5FLdr-69" target="uuuTYb2pi5rG6Kl5FLdr-68">
          <mxGeometry width="50" height="50" relative="1" as="geometry">
            <mxPoint x="560" y="410" as="sourcePoint" />
            <mxPoint x="610" y="360" as="targetPoint" />
          </mxGeometry>
        </mxCell>
        <mxCell id="uuuTYb2pi5rG6Kl5FLdr-79" value="" style="endArrow=classic;html=1;rounded=0;exitX=0.5;exitY=0;exitDx=0;exitDy=0;entryX=0.5;entryY=1;entryDx=0;entryDy=0;" edge="1" parent="1" source="uuuTYb2pi5rG6Kl5FLdr-70" target="uuuTYb2pi5rG6Kl5FLdr-68">
          <mxGeometry width="50" height="50" relative="1" as="geometry">
            <mxPoint x="560" y="410" as="sourcePoint" />
            <mxPoint x="610" y="360" as="targetPoint" />
          </mxGeometry>
        </mxCell>
        <mxCell id="uuuTYb2pi5rG6Kl5FLdr-82" value="" style="endArrow=classic;html=1;rounded=0;exitX=0.5;exitY=1;exitDx=0;exitDy=0;" edge="1" parent="1" source="uuuTYb2pi5rG6Kl5FLdr-76" target="uuuTYb2pi5rG6Kl5FLdr-83">
          <mxGeometry width="50" height="50" relative="1" as="geometry">
            <mxPoint x="560" y="410" as="sourcePoint" />
            <mxPoint x="520" y="280" as="targetPoint" />
          </mxGeometry>
        </mxCell>
        <mxCell id="uuuTYb2pi5rG6Kl5FLdr-83" value="event" style="ellipse;whiteSpace=wrap;html=1;" vertex="1" parent="1">
          <mxGeometry x="490" y="250" width="120" height="80" as="geometry" />
        </mxCell>
        <mxCell id="uuuTYb2pi5rG6Kl5FLdr-84" value="" style="endArrow=classic;html=1;rounded=0;exitX=0.408;exitY=1;exitDx=0;exitDy=0;exitPerimeter=0;entryX=0.5;entryY=0;entryDx=0;entryDy=0;" edge="1" parent="1" source="uuuTYb2pi5rG6Kl5FLdr-72" target="uuuTYb2pi5rG6Kl5FLdr-83">
          <mxGeometry width="50" height="50" relative="1" as="geometry">
            <mxPoint x="560" y="410" as="sourcePoint" />
            <mxPoint x="610" y="360" as="targetPoint" />
          </mxGeometry>
        </mxCell>
        <mxCell id="uuuTYb2pi5rG6Kl5FLdr-85" value="" style="endArrow=classic;html=1;rounded=0;exitX=0.033;exitY=0.688;exitDx=0;exitDy=0;exitPerimeter=0;entryX=1;entryY=0;entryDx=0;entryDy=0;" edge="1" parent="1" source="uuuTYb2pi5rG6Kl5FLdr-71" target="uuuTYb2pi5rG6Kl5FLdr-83">
          <mxGeometry width="50" height="50" relative="1" as="geometry">
            <mxPoint x="560" y="410" as="sourcePoint" />
            <mxPoint x="610" y="360" as="targetPoint" />
          </mxGeometry>
        </mxCell>
        <mxCell id="uuuTYb2pi5rG6Kl5FLdr-86" value="" style="endArrow=classic;html=1;rounded=0;exitX=0;exitY=0.5;exitDx=0;exitDy=0;entryX=1;entryY=0.5;entryDx=0;entryDy=0;" edge="1" parent="1" source="uuuTYb2pi5rG6Kl5FLdr-73" target="uuuTYb2pi5rG6Kl5FLdr-83">
          <mxGeometry width="50" height="50" relative="1" as="geometry">
            <mxPoint x="560" y="410" as="sourcePoint" />
            <mxPoint x="610" y="360" as="targetPoint" />
          </mxGeometry>
        </mxCell>
        <mxCell id="uuuTYb2pi5rG6Kl5FLdr-87" value="" style="endArrow=classic;html=1;rounded=0;exitX=0.333;exitY=0;exitDx=0;exitDy=0;exitPerimeter=0;entryX=0.5;entryY=1;entryDx=0;entryDy=0;" edge="1" parent="1" source="uuuTYb2pi5rG6Kl5FLdr-75" target="uuuTYb2pi5rG6Kl5FLdr-89">
          <mxGeometry width="50" height="50" relative="1" as="geometry">
            <mxPoint x="596" y="443" as="sourcePoint" />
            <mxPoint x="596" y="503" as="targetPoint" />
          </mxGeometry>
        </mxCell>
        <mxCell id="uuuTYb2pi5rG6Kl5FLdr-88" value="" style="endArrow=classic;html=1;rounded=0;" edge="1" parent="1" source="uuuTYb2pi5rG6Kl5FLdr-74" target="uuuTYb2pi5rG6Kl5FLdr-89">
          <mxGeometry width="50" height="50" relative="1" as="geometry">
            <mxPoint x="596" y="443" as="sourcePoint" />
            <mxPoint x="626" y="483" as="targetPoint" />
          </mxGeometry>
        </mxCell>
        <mxCell id="uuuTYb2pi5rG6Kl5FLdr-89" value="comment" style="ellipse;whiteSpace=wrap;html=1;" vertex="1" parent="1">
          <mxGeometry x="561" y="446" width="120" height="80" as="geometry" />
        </mxCell>
        <mxCell id="uuuTYb2pi5rG6Kl5FLdr-90" value="" style="endArrow=classic;html=1;rounded=0;exitX=0.1;exitY=0.113;exitDx=0;exitDy=0;exitPerimeter=0;" edge="1" parent="1" source="uuuTYb2pi5rG6Kl5FLdr-89" target="uuuTYb2pi5rG6Kl5FLdr-68">
          <mxGeometry width="50" height="50" relative="1" as="geometry">
            <mxPoint x="370" y="550" as="sourcePoint" />
            <mxPoint x="420" y="500" as="targetPoint" />
          </mxGeometry>
        </mxCell>
        <mxCell id="uuuTYb2pi5rG6Kl5FLdr-91" value="" style="endArrow=classic;html=1;rounded=0;" edge="1" parent="1" source="uuuTYb2pi5rG6Kl5FLdr-83">
          <mxGeometry width="50" height="50" relative="1" as="geometry">
            <mxPoint x="370" y="550" as="sourcePoint" />
            <mxPoint x="500" y="373" as="targetPoint" />
          </mxGeometry>
        </mxCell>
        <mxCell id="uuuTYb2pi5rG6Kl5FLdr-92" value="" style="endArrow=none;html=1;rounded=0;entryX=0;entryY=0.588;entryDx=0;entryDy=0;entryPerimeter=0;" edge="1" parent="1" source="uuuTYb2pi5rG6Kl5FLdr-58" target="uuuTYb2pi5rG6Kl5FLdr-69">
          <mxGeometry width="50" height="50" relative="1" as="geometry">
            <mxPoint x="370" y="450" as="sourcePoint" />
            <mxPoint x="420" y="400" as="targetPoint" />
          </mxGeometry>
        </mxCell>
        <mxCell id="uuuTYb2pi5rG6Kl5FLdr-93" value="" style="endArrow=none;html=1;rounded=0;entryX=0;entryY=0.5;entryDx=0;entryDy=0;" edge="1" parent="1" source="uuuTYb2pi5rG6Kl5FLdr-62" target="uuuTYb2pi5rG6Kl5FLdr-70">
          <mxGeometry width="50" height="50" relative="1" as="geometry">
            <mxPoint x="370" y="450" as="sourcePoint" />
            <mxPoint x="420" y="400" as="targetPoint" />
          </mxGeometry>
        </mxCell>
        <mxCell id="uuuTYb2pi5rG6Kl5FLdr-95" value="accept firend request" style="ellipse;whiteSpace=wrap;html=1;" vertex="1" parent="1">
          <mxGeometry x="20" y="230" width="120" height="80" as="geometry" />
        </mxCell>
        <mxCell id="uuuTYb2pi5rG6Kl5FLdr-96" value="send friend request" style="ellipse;whiteSpace=wrap;html=1;" vertex="1" parent="1">
          <mxGeometry x="10" y="520" width="120" height="80" as="geometry" />
        </mxCell>
        <mxCell id="uuuTYb2pi5rG6Kl5FLdr-97" value="friendship" style="ellipse;whiteSpace=wrap;html=1;" vertex="1" parent="1">
          <mxGeometry x="-80" y="366" width="120" height="80" as="geometry" />
        </mxCell>
        <mxCell id="uuuTYb2pi5rG6Kl5FLdr-98" value="" style="endArrow=classic;html=1;rounded=0;exitX=0.417;exitY=1.013;exitDx=0;exitDy=0;exitPerimeter=0;entryX=0.5;entryY=0;entryDx=0;entryDy=0;" edge="1" parent="1" source="uuuTYb2pi5rG6Kl5FLdr-95" target="uuuTYb2pi5rG6Kl5FLdr-97">
          <mxGeometry width="50" height="50" relative="1" as="geometry">
            <mxPoint x="370" y="450" as="sourcePoint" />
            <mxPoint x="420" y="400" as="targetPoint" />
          </mxGeometry>
        </mxCell>
        <mxCell id="uuuTYb2pi5rG6Kl5FLdr-99" value="" style="endArrow=classic;html=1;rounded=0;exitX=0.5;exitY=0;exitDx=0;exitDy=0;entryX=0.5;entryY=1;entryDx=0;entryDy=0;" edge="1" parent="1" source="uuuTYb2pi5rG6Kl5FLdr-96" target="uuuTYb2pi5rG6Kl5FLdr-97">
          <mxGeometry width="50" height="50" relative="1" as="geometry">
            <mxPoint x="370" y="450" as="sourcePoint" />
            <mxPoint x="420" y="400" as="targetPoint" />
          </mxGeometry>
        </mxCell>
        <mxCell id="uuuTYb2pi5rG6Kl5FLdr-100" value="" style="endArrow=none;html=1;rounded=0;entryX=1;entryY=0.5;entryDx=0;entryDy=0;" edge="1" parent="1" target="uuuTYb2pi5rG6Kl5FLdr-96">
          <mxGeometry width="50" height="50" relative="1" as="geometry">
            <mxPoint x="210" y="560" as="sourcePoint" />
            <mxPoint x="420" y="400" as="targetPoint" />
          </mxGeometry>
        </mxCell>
        <mxCell id="uuuTYb2pi5rG6Kl5FLdr-101" value="" style="endArrow=none;html=1;rounded=0;entryX=1;entryY=0.5;entryDx=0;entryDy=0;" edge="1" parent="1" target="uuuTYb2pi5rG6Kl5FLdr-95">
          <mxGeometry width="50" height="50" relative="1" as="geometry">
            <mxPoint x="200" y="280" as="sourcePoint" />
            <mxPoint x="420" y="400" as="targetPoint" />
          </mxGeometry>
        </mxCell>
        <mxCell id="uuuTYb2pi5rG6Kl5FLdr-103" value="friendship" style="shape=umlFrame;whiteSpace=wrap;html=1;pointerEvents=0;" vertex="1" parent="1">
          <mxGeometry x="-190" y="180" width="370" height="470" as="geometry" />
        </mxCell>
        <mxCell id="uuuTYb2pi5rG6Kl5FLdr-104" value="calendar" style="shape=umlFrame;whiteSpace=wrap;html=1;pointerEvents=0;" vertex="1" parent="1">
          <mxGeometry x="265" y="56" width="640" height="700" as="geometry" />
        </mxCell>
      </root>
    </mxGraphModel>
  </diagram>
</mxfile>
